<mxfile host="Electron" agent="Mozilla/5.0 (Windows NT 10.0; Win64; x64) AppleWebKit/537.36 (KHTML, like Gecko) draw.io/26.2.2 Chrome/134.0.6998.178 Electron/35.1.2 Safari/537.36" version="26.2.2">
  <diagram id="yN4uamWbjuZGDqm8cbg6" name="Страница 1">
    <mxGraphModel dx="1633" dy="470" grid="1" gridSize="10" guides="1" tooltips="1" connect="1" arrows="1" fold="1" page="1" pageScale="1" pageWidth="827" pageHeight="1169" math="0" shadow="0">
      <root>
        <mxCell id="0" />
        <mxCell id="1" parent="0" />
        <mxCell id="LEEe3PYRZzJLNCYXb-5_-1" value="TV" style="swimlane;fontStyle=1;align=center;verticalAlign=top;childLayout=stackLayout;horizontal=1;startSize=26;horizontalStack=0;resizeParent=1;resizeParentMax=0;resizeLast=0;collapsible=1;marginBottom=0;" parent="1" vertex="1">
          <mxGeometry x="360" y="90" width="200" height="156" as="geometry" />
        </mxCell>
        <mxCell id="LEEe3PYRZzJLNCYXb-5_-7" value="+TurnOn()" style="text;strokeColor=none;fillColor=none;align=left;verticalAlign=top;spacingLeft=4;spacingRight=4;overflow=hidden;rotatable=0;points=[[0,0.5],[1,0.5]];portConstraint=eastwest;" parent="LEEe3PYRZzJLNCYXb-5_-1" vertex="1">
          <mxGeometry y="26" width="200" height="26" as="geometry" />
        </mxCell>
        <mxCell id="LEEe3PYRZzJLNCYXb-5_-8" value="+TurnOff()" style="text;strokeColor=none;fillColor=none;align=left;verticalAlign=top;spacingLeft=4;spacingRight=4;overflow=hidden;rotatable=0;points=[[0,0.5],[1,0.5]];portConstraint=eastwest;" parent="LEEe3PYRZzJLNCYXb-5_-1" vertex="1">
          <mxGeometry y="52" width="200" height="26" as="geometry" />
        </mxCell>
        <mxCell id="LEEe3PYRZzJLNCYXb-5_-9" value="+IsTurnedOn():bool" style="text;strokeColor=none;fillColor=none;align=left;verticalAlign=top;spacingLeft=4;spacingRight=4;overflow=hidden;rotatable=0;points=[[0,0.5],[1,0.5]];portConstraint=eastwest;" parent="LEEe3PYRZzJLNCYXb-5_-1" vertex="1">
          <mxGeometry y="78" width="200" height="26" as="geometry" />
        </mxCell>
        <mxCell id="LEEe3PYRZzJLNCYXb-5_-10" value="+SelectChannel(channel:int)" style="text;strokeColor=none;fillColor=none;align=left;verticalAlign=top;spacingLeft=4;spacingRight=4;overflow=hidden;rotatable=0;points=[[0,0.5],[1,0.5]];portConstraint=eastwest;" parent="LEEe3PYRZzJLNCYXb-5_-1" vertex="1">
          <mxGeometry y="104" width="200" height="26" as="geometry" />
        </mxCell>
        <mxCell id="LEEe3PYRZzJLNCYXb-5_-11" value="+GetCurrentChannel():int" style="text;strokeColor=none;fillColor=none;align=left;verticalAlign=top;spacingLeft=4;spacingRight=4;overflow=hidden;rotatable=0;points=[[0,0.5],[1,0.5]];portConstraint=eastwest;" parent="LEEe3PYRZzJLNCYXb-5_-1" vertex="1">
          <mxGeometry y="130" width="200" height="26" as="geometry" />
        </mxCell>
        <mxCell id="LEEe3PYRZzJLNCYXb-5_-5" value="RemoteControl" style="swimlane;fontStyle=1;align=center;verticalAlign=top;childLayout=stackLayout;horizontal=1;startSize=26;horizontalStack=0;resizeParent=1;resizeParentMax=0;resizeLast=0;collapsible=1;marginBottom=0;" parent="1" vertex="1">
          <mxGeometry x="80" y="120" width="160" height="112" as="geometry" />
        </mxCell>
        <mxCell id="LEEe3PYRZzJLNCYXb-5_-12" value="+RemoteControl(tv:TV&amp;)" style="text;strokeColor=none;fillColor=none;align=left;verticalAlign=top;spacingLeft=4;spacingRight=4;overflow=hidden;rotatable=0;points=[[0,0.5],[1,0.5]];portConstraint=eastwest;" parent="LEEe3PYRZzJLNCYXb-5_-5" vertex="1">
          <mxGeometry y="26" width="160" height="26" as="geometry" />
        </mxCell>
        <mxCell id="LEEe3PYRZzJLNCYXb-5_-15" value="-HandleTurnOn()" style="text;strokeColor=none;fillColor=none;align=left;verticalAlign=top;spacingLeft=4;spacingRight=4;overflow=hidden;rotatable=0;points=[[0,0.5],[1,0.5]];portConstraint=eastwest;" parent="LEEe3PYRZzJLNCYXb-5_-5" vertex="1">
          <mxGeometry y="52" width="160" height="26" as="geometry" />
        </mxCell>
        <mxCell id="LEEe3PYRZzJLNCYXb-5_-13" value="" style="line;strokeWidth=1;fillColor=none;align=left;verticalAlign=middle;spacingTop=-1;spacingLeft=3;spacingRight=3;rotatable=0;labelPosition=right;points=[];portConstraint=eastwest;" parent="LEEe3PYRZzJLNCYXb-5_-5" vertex="1">
          <mxGeometry y="78" width="160" height="8" as="geometry" />
        </mxCell>
        <mxCell id="LEEe3PYRZzJLNCYXb-5_-6" value="-m_tv:TV&amp;" style="text;strokeColor=none;fillColor=none;align=left;verticalAlign=top;spacingLeft=4;spacingRight=4;overflow=hidden;rotatable=0;points=[[0,0.5],[1,0.5]];portConstraint=eastwest;" parent="LEEe3PYRZzJLNCYXb-5_-5" vertex="1">
          <mxGeometry y="86" width="160" height="26" as="geometry" />
        </mxCell>
        <mxCell id="LEEe3PYRZzJLNCYXb-5_-14" value="" style="endArrow=diamondThin;endFill=0;endSize=24;html=1;" parent="1" source="LEEe3PYRZzJLNCYXb-5_-1" target="LEEe3PYRZzJLNCYXb-5_-5" edge="1">
          <mxGeometry width="160" relative="1" as="geometry">
            <mxPoint x="50" y="410" as="sourcePoint" />
            <mxPoint x="210" y="410" as="targetPoint" />
          </mxGeometry>
        </mxCell>
        <mxCell id="LEEe3PYRZzJLNCYXb-5_-17" value="&lt;div style=&quot;text-align: left&quot;&gt;&lt;font face=&quot;Consolas&quot;&gt;&lt;span&gt;void RemoteControl::HandleTurnOn()&amp;nbsp;&lt;/span&gt;&lt;span style=&quot;background-color: transparent; color: light-dark(rgb(0, 0, 0), rgb(255, 255, 255));&quot;&gt;{&lt;/span&gt;&lt;/font&gt;&lt;/div&gt;&lt;div style=&quot;text-align: left&quot;&gt;&lt;span&gt;&lt;font face=&quot;Consolas&quot;&gt;&amp;nbsp; m_tv.TurnOn()&lt;/font&gt;&lt;/span&gt;&lt;/div&gt;&lt;div style=&quot;text-align: left&quot;&gt;&lt;span&gt;&lt;font face=&quot;Consolas&quot;&gt;}&lt;/font&gt;&lt;/span&gt;&lt;/div&gt;" style="shape=note;whiteSpace=wrap;html=1;backgroundOutline=1;darkOpacity=0.05;size=19;" parent="1" vertex="1">
          <mxGeometry x="20" y="310" width="270" height="80" as="geometry" />
        </mxCell>
        <mxCell id="LEEe3PYRZzJLNCYXb-5_-18" style="edgeStyle=orthogonalEdgeStyle;rounded=0;orthogonalLoop=1;jettySize=auto;html=1;" parent="1" source="LEEe3PYRZzJLNCYXb-5_-15" target="LEEe3PYRZzJLNCYXb-5_-17" edge="1">
          <mxGeometry relative="1" as="geometry" />
        </mxCell>
        <mxCell id="s31DPwUx9RCKBZJJSV05-1" value="Person" style="swimlane;fontStyle=1;align=center;verticalAlign=top;childLayout=stackLayout;horizontal=1;startSize=26;horizontalStack=0;resizeParent=1;resizeParentMax=0;resizeLast=0;collapsible=1;marginBottom=0;" parent="1" vertex="1">
          <mxGeometry x="500" y="480" width="160" height="52" as="geometry" />
        </mxCell>
        <mxCell id="s31DPwUx9RCKBZJJSV05-5" value="Student" style="swimlane;fontStyle=1;align=center;verticalAlign=top;childLayout=stackLayout;horizontal=1;startSize=26;horizontalStack=0;resizeParent=1;resizeParentMax=0;resizeLast=0;collapsible=1;marginBottom=0;" parent="1" vertex="1">
          <mxGeometry x="400" y="600" width="160" height="52" as="geometry" />
        </mxCell>
        <mxCell id="s31DPwUx9RCKBZJJSV05-6" value="Worker" style="swimlane;fontStyle=1;align=center;verticalAlign=top;childLayout=stackLayout;horizontal=1;startSize=26;horizontalStack=0;resizeParent=1;resizeParentMax=0;resizeLast=0;collapsible=1;marginBottom=0;" parent="1" vertex="1">
          <mxGeometry x="600" y="600" width="160" height="52" as="geometry" />
        </mxCell>
        <mxCell id="s31DPwUx9RCKBZJJSV05-7" value="Extends" style="endArrow=block;endSize=16;endFill=0;html=1;" parent="1" source="s31DPwUx9RCKBZJJSV05-5" target="s31DPwUx9RCKBZJJSV05-1" edge="1">
          <mxGeometry width="160" relative="1" as="geometry">
            <mxPoint x="450" y="560" as="sourcePoint" />
            <mxPoint x="610" y="560" as="targetPoint" />
          </mxGeometry>
        </mxCell>
        <mxCell id="s31DPwUx9RCKBZJJSV05-8" value="Extends" style="endArrow=block;endSize=16;endFill=0;html=1;" parent="1" source="s31DPwUx9RCKBZJJSV05-6" target="s31DPwUx9RCKBZJJSV05-1" edge="1">
          <mxGeometry width="160" relative="1" as="geometry">
            <mxPoint x="450" y="560" as="sourcePoint" />
            <mxPoint x="610" y="560" as="targetPoint" />
          </mxGeometry>
        </mxCell>
        <mxCell id="s31DPwUx9RCKBZJJSV05-9" value="Shape" style="swimlane;fontStyle=1;align=center;verticalAlign=top;childLayout=stackLayout;horizontal=1;startSize=26;horizontalStack=0;resizeParent=1;resizeParentMax=0;resizeLast=0;collapsible=1;marginBottom=0;" parent="1" vertex="1">
          <mxGeometry x="80" y="680" width="80" height="52" as="geometry" />
        </mxCell>
        <mxCell id="s31DPwUx9RCKBZJJSV05-10" value="Shape2D" style="swimlane;fontStyle=1;align=center;verticalAlign=top;childLayout=stackLayout;horizontal=1;startSize=26;horizontalStack=0;resizeParent=1;resizeParentMax=0;resizeLast=0;collapsible=1;marginBottom=0;" parent="1" vertex="1">
          <mxGeometry x="-40" y="780" width="120" height="52" as="geometry" />
        </mxCell>
        <mxCell id="s31DPwUx9RCKBZJJSV05-11" value="Shape3D" style="swimlane;fontStyle=1;align=center;verticalAlign=top;childLayout=stackLayout;horizontal=1;startSize=26;horizontalStack=0;resizeParent=1;resizeParentMax=0;resizeLast=0;collapsible=1;marginBottom=0;" parent="1" vertex="1">
          <mxGeometry x="160" y="780" width="120" height="52" as="geometry" />
        </mxCell>
        <mxCell id="s31DPwUx9RCKBZJJSV05-12" value="Circle" style="swimlane;fontStyle=1;align=center;verticalAlign=top;childLayout=stackLayout;horizontal=1;startSize=26;horizontalStack=0;resizeParent=1;resizeParentMax=0;resizeLast=0;collapsible=1;marginBottom=0;" parent="1" vertex="1">
          <mxGeometry x="-100" y="880" width="100" height="52" as="geometry" />
        </mxCell>
        <mxCell id="s31DPwUx9RCKBZJJSV05-13" value="Triangle" style="swimlane;fontStyle=1;align=center;verticalAlign=top;childLayout=stackLayout;horizontal=1;startSize=26;horizontalStack=0;resizeParent=1;resizeParentMax=0;resizeLast=0;collapsible=1;marginBottom=0;" parent="1" vertex="1">
          <mxGeometry x="10" y="880" width="100" height="52" as="geometry" />
        </mxCell>
        <mxCell id="s31DPwUx9RCKBZJJSV05-14" value="Cube" style="swimlane;fontStyle=1;align=center;verticalAlign=top;childLayout=stackLayout;horizontal=1;startSize=26;horizontalStack=0;resizeParent=1;resizeParentMax=0;resizeLast=0;collapsible=1;marginBottom=0;" parent="1" vertex="1">
          <mxGeometry x="130" y="880" width="100" height="52" as="geometry" />
        </mxCell>
        <mxCell id="s31DPwUx9RCKBZJJSV05-15" value="Sphere" style="swimlane;fontStyle=1;align=center;verticalAlign=top;childLayout=stackLayout;horizontal=1;startSize=26;horizontalStack=0;resizeParent=1;resizeParentMax=0;resizeLast=0;collapsible=1;marginBottom=0;" parent="1" vertex="1">
          <mxGeometry x="240" y="880" width="100" height="52" as="geometry" />
        </mxCell>
        <mxCell id="s31DPwUx9RCKBZJJSV05-16" value="" style="endArrow=block;endSize=16;endFill=0;html=1;" parent="1" source="s31DPwUx9RCKBZJJSV05-10" target="s31DPwUx9RCKBZJJSV05-9" edge="1">
          <mxGeometry width="160" relative="1" as="geometry">
            <mxPoint y="750" as="sourcePoint" />
            <mxPoint x="160" y="750" as="targetPoint" />
          </mxGeometry>
        </mxCell>
        <mxCell id="s31DPwUx9RCKBZJJSV05-17" value="" style="endArrow=block;endSize=16;endFill=0;html=1;" parent="1" source="s31DPwUx9RCKBZJJSV05-11" target="s31DPwUx9RCKBZJJSV05-9" edge="1">
          <mxGeometry width="160" relative="1" as="geometry">
            <mxPoint y="750" as="sourcePoint" />
            <mxPoint x="160" y="750" as="targetPoint" />
          </mxGeometry>
        </mxCell>
        <mxCell id="s31DPwUx9RCKBZJJSV05-18" value="" style="endArrow=block;endSize=16;endFill=0;html=1;" parent="1" source="s31DPwUx9RCKBZJJSV05-14" target="s31DPwUx9RCKBZJJSV05-11" edge="1">
          <mxGeometry width="160" relative="1" as="geometry">
            <mxPoint x="204" y="790" as="sourcePoint" />
            <mxPoint x="120" y="820" as="targetPoint" />
          </mxGeometry>
        </mxCell>
        <mxCell id="s31DPwUx9RCKBZJJSV05-19" value="" style="endArrow=block;endSize=16;endFill=0;html=1;" parent="1" source="s31DPwUx9RCKBZJJSV05-15" target="s31DPwUx9RCKBZJJSV05-11" edge="1">
          <mxGeometry width="160" relative="1" as="geometry">
            <mxPoint x="204" y="790" as="sourcePoint" />
            <mxPoint x="120" y="820" as="targetPoint" />
          </mxGeometry>
        </mxCell>
        <mxCell id="s31DPwUx9RCKBZJJSV05-20" value="" style="endArrow=block;endSize=16;endFill=0;html=1;" parent="1" source="s31DPwUx9RCKBZJJSV05-13" target="s31DPwUx9RCKBZJJSV05-10" edge="1">
          <mxGeometry width="160" relative="1" as="geometry">
            <mxPoint x="113.59999999999997" y="890" as="sourcePoint" />
            <mxPoint x="80.00000000000006" y="842" as="targetPoint" />
          </mxGeometry>
        </mxCell>
        <mxCell id="s31DPwUx9RCKBZJJSV05-21" value="" style="endArrow=block;endSize=16;endFill=0;html=1;" parent="1" source="s31DPwUx9RCKBZJJSV05-12" target="s31DPwUx9RCKBZJJSV05-10" edge="1">
          <mxGeometry width="160" relative="1" as="geometry">
            <mxPoint x="113.59999999999997" y="890" as="sourcePoint" />
            <mxPoint x="80.00000000000006" y="842" as="targetPoint" />
          </mxGeometry>
        </mxCell>
        <mxCell id="Q1-EeQ-NqZ19hB_-HoZO-5" value="ShapeReader" style="swimlane;fontStyle=1;align=center;verticalAlign=top;childLayout=stackLayout;horizontal=1;startSize=26;horizontalStack=0;resizeParent=1;resizeParentMax=0;resizeLast=0;collapsible=1;marginBottom=0;whiteSpace=wrap;html=1;" parent="1" vertex="1">
          <mxGeometry x="-680" y="480" width="160" height="52" as="geometry" />
        </mxCell>
        <mxCell id="Q1-EeQ-NqZ19hB_-HoZO-6" value="+ReadNextShape():Shape" style="text;strokeColor=none;fillColor=none;align=left;verticalAlign=top;spacingLeft=4;spacingRight=4;overflow=hidden;rotatable=0;points=[[0,0.5],[1,0.5]];portConstraint=eastwest;whiteSpace=wrap;html=1;" parent="Q1-EeQ-NqZ19hB_-HoZO-5" vertex="1">
          <mxGeometry y="26" width="160" height="26" as="geometry" />
        </mxCell>
        <mxCell id="Q1-EeQ-NqZ19hB_-HoZO-9" value="Shape" style="swimlane;fontStyle=1;align=center;verticalAlign=top;childLayout=stackLayout;horizontal=1;startSize=26;horizontalStack=0;resizeParent=1;resizeParentMax=0;resizeLast=0;collapsible=1;marginBottom=0;whiteSpace=wrap;html=1;" parent="1" vertex="1">
          <mxGeometry x="-360" y="480" width="160" height="52" as="geometry" />
        </mxCell>
        <mxCell id="Q1-EeQ-NqZ19hB_-HoZO-13" value="Return" style="endArrow=open;endSize=12;dashed=1;html=1;rounded=0;" parent="1" source="Q1-EeQ-NqZ19hB_-HoZO-5" target="Q1-EeQ-NqZ19hB_-HoZO-9" edge="1">
          <mxGeometry width="160" relative="1" as="geometry">
            <mxPoint x="-500" y="590" as="sourcePoint" />
            <mxPoint x="-340" y="590" as="targetPoint" />
          </mxGeometry>
        </mxCell>
        <mxCell id="Q1-EeQ-NqZ19hB_-HoZO-14" value="Foo" style="swimlane;fontStyle=1;align=center;verticalAlign=top;childLayout=stackLayout;horizontal=1;startSize=26;horizontalStack=0;resizeParent=1;resizeParentMax=0;resizeLast=0;collapsible=1;marginBottom=0;whiteSpace=wrap;html=1;" parent="1" vertex="1">
          <mxGeometry x="-680" y="240" width="110" height="52" as="geometry" />
        </mxCell>
        <mxCell id="Q1-EeQ-NqZ19hB_-HoZO-15" value="+CreateBar():Bar" style="text;strokeColor=none;fillColor=none;align=left;verticalAlign=top;spacingLeft=4;spacingRight=4;overflow=hidden;rotatable=0;points=[[0,0.5],[1,0.5]];portConstraint=eastwest;whiteSpace=wrap;html=1;" parent="Q1-EeQ-NqZ19hB_-HoZO-14" vertex="1">
          <mxGeometry y="26" width="110" height="26" as="geometry" />
        </mxCell>
        <mxCell id="Q1-EeQ-NqZ19hB_-HoZO-16" value="Bar" style="swimlane;fontStyle=1;align=center;verticalAlign=top;childLayout=stackLayout;horizontal=1;startSize=26;horizontalStack=0;resizeParent=1;resizeParentMax=0;resizeLast=0;collapsible=1;marginBottom=0;whiteSpace=wrap;html=1;" parent="1" vertex="1">
          <mxGeometry x="-500" y="240" width="160" height="52" as="geometry" />
        </mxCell>
        <mxCell id="Q1-EeQ-NqZ19hB_-HoZO-17" value="+DoSomething(baz:Baz)" style="text;strokeColor=none;fillColor=none;align=left;verticalAlign=top;spacingLeft=4;spacingRight=4;overflow=hidden;rotatable=0;points=[[0,0.5],[1,0.5]];portConstraint=eastwest;whiteSpace=wrap;html=1;" parent="Q1-EeQ-NqZ19hB_-HoZO-16" vertex="1">
          <mxGeometry y="26" width="160" height="26" as="geometry" />
        </mxCell>
        <mxCell id="Q1-EeQ-NqZ19hB_-HoZO-18" value="Baz" style="swimlane;fontStyle=1;align=center;verticalAlign=top;childLayout=stackLayout;horizontal=1;startSize=26;horizontalStack=0;resizeParent=1;resizeParentMax=0;resizeLast=0;collapsible=1;marginBottom=0;whiteSpace=wrap;html=1;" parent="1" vertex="1">
          <mxGeometry x="-270" y="240" width="80" height="52" as="geometry" />
        </mxCell>
        <mxCell id="Q1-EeQ-NqZ19hB_-HoZO-20" value="Return" style="endArrow=open;endSize=12;dashed=1;html=1;rounded=0;" parent="1" source="Q1-EeQ-NqZ19hB_-HoZO-14" target="Q1-EeQ-NqZ19hB_-HoZO-16" edge="1">
          <mxGeometry width="160" relative="1" as="geometry">
            <mxPoint x="-450" y="340" as="sourcePoint" />
            <mxPoint x="-290" y="340" as="targetPoint" />
          </mxGeometry>
        </mxCell>
        <mxCell id="Q1-EeQ-NqZ19hB_-HoZO-21" value="Use" style="endArrow=open;endSize=12;dashed=1;html=1;rounded=0;" parent="1" source="Q1-EeQ-NqZ19hB_-HoZO-16" target="Q1-EeQ-NqZ19hB_-HoZO-18" edge="1">
          <mxGeometry width="160" relative="1" as="geometry">
            <mxPoint x="-510" y="276" as="sourcePoint" />
            <mxPoint x="-410" y="276" as="targetPoint" />
          </mxGeometry>
        </mxCell>
        <mxCell id="k_WOViQdDleKNS3Q56sM-1" value="Cat" style="swimlane;fontStyle=1;align=center;verticalAlign=top;childLayout=stackLayout;horizontal=1;startSize=26;horizontalStack=0;resizeParent=1;resizeParentMax=0;resizeLast=0;collapsible=1;marginBottom=0;whiteSpace=wrap;html=1;" parent="1" vertex="1">
          <mxGeometry x="-560" y="642" width="160" height="164" as="geometry" />
        </mxCell>
        <mxCell id="k_WOViQdDleKNS3Q56sM-6" value="+ GetAge():int" style="text;strokeColor=none;fillColor=none;align=left;verticalAlign=top;spacingLeft=4;spacingRight=4;overflow=hidden;rotatable=0;points=[[0,0.5],[1,0.5]];portConstraint=eastwest;whiteSpace=wrap;html=1;" parent="k_WOViQdDleKNS3Q56sM-1" vertex="1">
          <mxGeometry y="26" width="160" height="26" as="geometry" />
        </mxCell>
        <mxCell id="k_WOViQdDleKNS3Q56sM-2" value="+ GetName():string" style="text;strokeColor=none;fillColor=none;align=left;verticalAlign=top;spacingLeft=4;spacingRight=4;overflow=hidden;rotatable=0;points=[[0,0.5],[1,0.5]];portConstraint=eastwest;whiteSpace=wrap;html=1;" parent="k_WOViQdDleKNS3Q56sM-1" vertex="1">
          <mxGeometry y="52" width="160" height="26" as="geometry" />
        </mxCell>
        <mxCell id="k_WOViQdDleKNS3Q56sM-4" value="+ SetName(name:String)" style="text;strokeColor=none;fillColor=none;align=left;verticalAlign=top;spacingLeft=4;spacingRight=4;overflow=hidden;rotatable=0;points=[[0,0.5],[1,0.5]];portConstraint=eastwest;whiteSpace=wrap;html=1;" parent="k_WOViQdDleKNS3Q56sM-1" vertex="1">
          <mxGeometry y="78" width="160" height="26" as="geometry" />
        </mxCell>
        <mxCell id="k_WOViQdDleKNS3Q56sM-3" value="" style="line;strokeWidth=1;fillColor=none;align=left;verticalAlign=middle;spacingTop=-1;spacingLeft=3;spacingRight=3;rotatable=0;labelPosition=right;points=[];portConstraint=eastwest;strokeColor=inherit;" parent="k_WOViQdDleKNS3Q56sM-1" vertex="1">
          <mxGeometry y="104" width="160" height="8" as="geometry" />
        </mxCell>
        <mxCell id="k_WOViQdDleKNS3Q56sM-5" value="- m_name: string" style="text;strokeColor=none;fillColor=none;align=left;verticalAlign=top;spacingLeft=4;spacingRight=4;overflow=hidden;rotatable=0;points=[[0,0.5],[1,0.5]];portConstraint=eastwest;whiteSpace=wrap;html=1;" parent="k_WOViQdDleKNS3Q56sM-1" vertex="1">
          <mxGeometry y="112" width="160" height="26" as="geometry" />
        </mxCell>
        <mxCell id="k_WOViQdDleKNS3Q56sM-7" value="- m_age: int" style="text;strokeColor=none;fillColor=none;align=left;verticalAlign=top;spacingLeft=4;spacingRight=4;overflow=hidden;rotatable=0;points=[[0,0.5],[1,0.5]];portConstraint=eastwest;whiteSpace=wrap;html=1;" parent="k_WOViQdDleKNS3Q56sM-1" vertex="1">
          <mxGeometry y="138" width="160" height="26" as="geometry" />
        </mxCell>
        <mxCell id="k_WOViQdDleKNS3Q56sM-8" value="Dog" style="swimlane;fontStyle=1;align=center;verticalAlign=top;childLayout=stackLayout;horizontal=1;startSize=26;horizontalStack=0;resizeParent=1;resizeParentMax=0;resizeLast=0;collapsible=1;marginBottom=0;whiteSpace=wrap;html=1;" parent="1" vertex="1">
          <mxGeometry x="-320" y="642" width="160" height="52" as="geometry" />
        </mxCell>
        <mxCell id="k_WOViQdDleKNS3Q56sM-15" value="..." style="text;strokeColor=none;fillColor=none;align=left;verticalAlign=top;spacingLeft=4;spacingRight=4;overflow=hidden;rotatable=0;points=[[0,0.5],[1,0.5]];portConstraint=eastwest;whiteSpace=wrap;html=1;" parent="k_WOViQdDleKNS3Q56sM-8" vertex="1">
          <mxGeometry y="26" width="160" height="26" as="geometry" />
        </mxCell>
        <mxCell id="k_WOViQdDleKNS3Q56sM-16" value="&lt;div&gt;&lt;span style=&quot;font-weight: normal;&quot;&gt;&amp;lt;&amp;lt;enumeration&amp;gt;&amp;gt;&lt;/span&gt;&lt;/div&gt;CatBreed" style="swimlane;fontStyle=1;align=center;verticalAlign=top;childLayout=stackLayout;horizontal=1;startSize=40;horizontalStack=0;resizeParent=1;resizeParentMax=0;resizeLast=0;collapsible=1;marginBottom=0;whiteSpace=wrap;html=1;" parent="1" vertex="1">
          <mxGeometry x="-770" y="642" width="160" height="144" as="geometry" />
        </mxCell>
        <mxCell id="k_WOViQdDleKNS3Q56sM-18" value="Abyssinian" style="text;strokeColor=none;fillColor=none;align=left;verticalAlign=top;spacingLeft=4;spacingRight=4;overflow=hidden;rotatable=0;points=[[0,0.5],[1,0.5]];portConstraint=eastwest;whiteSpace=wrap;html=1;" parent="k_WOViQdDleKNS3Q56sM-16" vertex="1">
          <mxGeometry y="40" width="160" height="26" as="geometry" />
        </mxCell>
        <mxCell id="k_WOViQdDleKNS3Q56sM-17" value="Bengal" style="text;strokeColor=none;fillColor=none;align=left;verticalAlign=top;spacingLeft=4;spacingRight=4;overflow=hidden;rotatable=0;points=[[0,0.5],[1,0.5]];portConstraint=eastwest;whiteSpace=wrap;html=1;" parent="k_WOViQdDleKNS3Q56sM-16" vertex="1">
          <mxGeometry y="66" width="160" height="26" as="geometry" />
        </mxCell>
        <mxCell id="k_WOViQdDleKNS3Q56sM-19" value="Birman" style="text;strokeColor=none;fillColor=none;align=left;verticalAlign=top;spacingLeft=4;spacingRight=4;overflow=hidden;rotatable=0;points=[[0,0.5],[1,0.5]];portConstraint=eastwest;whiteSpace=wrap;html=1;" parent="k_WOViQdDleKNS3Q56sM-16" vertex="1">
          <mxGeometry y="92" width="160" height="26" as="geometry" />
        </mxCell>
        <mxCell id="k_WOViQdDleKNS3Q56sM-20" value="CornishRex" style="text;strokeColor=none;fillColor=none;align=left;verticalAlign=top;spacingLeft=4;spacingRight=4;overflow=hidden;rotatable=0;points=[[0,0.5],[1,0.5]];portConstraint=eastwest;whiteSpace=wrap;html=1;" parent="k_WOViQdDleKNS3Q56sM-16" vertex="1">
          <mxGeometry y="118" width="160" height="26" as="geometry" />
        </mxCell>
        <mxCell id="k_WOViQdDleKNS3Q56sM-21" value="HTTPClient" style="swimlane;fontStyle=1;align=center;verticalAlign=top;childLayout=stackLayout;horizontal=1;startSize=26;horizontalStack=0;resizeParent=1;resizeParentMax=0;resizeLast=0;collapsible=1;marginBottom=0;whiteSpace=wrap;html=1;" parent="1" vertex="1">
          <mxGeometry x="-640" y="1040" width="270" height="52" as="geometry" />
        </mxCell>
        <mxCell id="k_WOViQdDleKNS3Q56sM-22" value="+SendRequest(request:Request):Response" style="text;strokeColor=none;fillColor=none;align=left;verticalAlign=top;spacingLeft=4;spacingRight=4;overflow=hidden;rotatable=0;points=[[0,0.5],[1,0.5]];portConstraint=eastwest;whiteSpace=wrap;html=1;" parent="k_WOViQdDleKNS3Q56sM-21" vertex="1">
          <mxGeometry y="26" width="270" height="26" as="geometry" />
        </mxCell>
        <mxCell id="k_WOViQdDleKNS3Q56sM-25" value="ImageView" style="swimlane;fontStyle=1;align=center;verticalAlign=top;childLayout=stackLayout;horizontal=1;startSize=26;horizontalStack=0;resizeParent=1;resizeParentMax=0;resizeLast=0;collapsible=1;marginBottom=0;whiteSpace=wrap;html=1;" parent="1" vertex="1">
          <mxGeometry x="-720" y="1169" width="200" height="112" as="geometry" />
        </mxCell>
        <mxCell id="8moImD6-OMO9e3SYLIEy-28" value="+ImageView(client:HTTPClient)" style="text;strokeColor=none;fillColor=none;align=left;verticalAlign=top;spacingLeft=4;spacingRight=4;overflow=hidden;rotatable=0;points=[[0,0.5],[1,0.5]];portConstraint=eastwest;whiteSpace=wrap;html=1;" vertex="1" parent="k_WOViQdDleKNS3Q56sM-25">
          <mxGeometry y="26" width="200" height="26" as="geometry" />
        </mxCell>
        <mxCell id="k_WOViQdDleKNS3Q56sM-26" value="+ShowImage(url:URL)" style="text;strokeColor=none;fillColor=none;align=left;verticalAlign=top;spacingLeft=4;spacingRight=4;overflow=hidden;rotatable=0;points=[[0,0.5],[1,0.5]];portConstraint=eastwest;whiteSpace=wrap;html=1;" parent="k_WOViQdDleKNS3Q56sM-25" vertex="1">
          <mxGeometry y="52" width="200" height="26" as="geometry" />
        </mxCell>
        <mxCell id="8moImD6-OMO9e3SYLIEy-26" value="" style="line;strokeWidth=1;fillColor=none;align=left;verticalAlign=middle;spacingTop=-1;spacingLeft=3;spacingRight=3;rotatable=0;labelPosition=right;points=[];portConstraint=eastwest;strokeColor=inherit;" vertex="1" parent="k_WOViQdDleKNS3Q56sM-25">
          <mxGeometry y="78" width="200" height="8" as="geometry" />
        </mxCell>
        <mxCell id="8moImD6-OMO9e3SYLIEy-23" value="- m_client:HTTPClient&amp;amp;" style="text;strokeColor=none;fillColor=none;align=left;verticalAlign=top;spacingLeft=4;spacingRight=4;overflow=hidden;rotatable=0;points=[[0,0.5],[1,0.5]];portConstraint=eastwest;whiteSpace=wrap;html=1;" vertex="1" parent="k_WOViQdDleKNS3Q56sM-25">
          <mxGeometry y="86" width="200" height="26" as="geometry" />
        </mxCell>
        <mxCell id="k_WOViQdDleKNS3Q56sM-27" value="" style="endArrow=diamondThin;endFill=0;endSize=24;html=1;rounded=0;" parent="1" source="k_WOViQdDleKNS3Q56sM-21" target="k_WOViQdDleKNS3Q56sM-25" edge="1">
          <mxGeometry width="160" relative="1" as="geometry">
            <mxPoint x="-690" y="1280" as="sourcePoint" />
            <mxPoint x="-530" y="1280" as="targetPoint" />
          </mxGeometry>
        </mxCell>
        <mxCell id="k_WOViQdDleKNS3Q56sM-28" value="UsersAPIGateway" style="swimlane;fontStyle=1;align=center;verticalAlign=top;childLayout=stackLayout;horizontal=1;startSize=26;horizontalStack=0;resizeParent=1;resizeParentMax=0;resizeLast=0;collapsible=1;marginBottom=0;whiteSpace=wrap;html=1;" parent="1" vertex="1">
          <mxGeometry x="-480" y="1169" width="270" height="138" as="geometry" />
        </mxCell>
        <mxCell id="8moImD6-OMO9e3SYLIEy-34" value="+UsersAPIGateway(client:HTTPClient)" style="text;strokeColor=none;fillColor=none;align=left;verticalAlign=top;spacingLeft=4;spacingRight=4;overflow=hidden;rotatable=0;points=[[0,0.5],[1,0.5]];portConstraint=eastwest;whiteSpace=wrap;html=1;" vertex="1" parent="k_WOViQdDleKNS3Q56sM-28">
          <mxGeometry y="26" width="270" height="26" as="geometry" />
        </mxCell>
        <mxCell id="k_WOViQdDleKNS3Q56sM-29" value="+GetUsers():Users" style="text;strokeColor=none;fillColor=none;align=left;verticalAlign=top;spacingLeft=4;spacingRight=4;overflow=hidden;rotatable=0;points=[[0,0.5],[1,0.5]];portConstraint=eastwest;whiteSpace=wrap;html=1;" parent="k_WOViQdDleKNS3Q56sM-28" vertex="1">
          <mxGeometry y="52" width="270" height="26" as="geometry" />
        </mxCell>
        <mxCell id="k_WOViQdDleKNS3Q56sM-30" value="+DeleteUser(id)" style="text;strokeColor=none;fillColor=none;align=left;verticalAlign=top;spacingLeft=4;spacingRight=4;overflow=hidden;rotatable=0;points=[[0,0.5],[1,0.5]];portConstraint=eastwest;whiteSpace=wrap;html=1;" parent="k_WOViQdDleKNS3Q56sM-28" vertex="1">
          <mxGeometry y="78" width="270" height="26" as="geometry" />
        </mxCell>
        <mxCell id="8moImD6-OMO9e3SYLIEy-27" value="" style="line;strokeWidth=1;fillColor=none;align=left;verticalAlign=middle;spacingTop=-1;spacingLeft=3;spacingRight=3;rotatable=0;labelPosition=right;points=[];portConstraint=eastwest;strokeColor=inherit;" vertex="1" parent="k_WOViQdDleKNS3Q56sM-28">
          <mxGeometry y="104" width="270" height="8" as="geometry" />
        </mxCell>
        <mxCell id="8moImD6-OMO9e3SYLIEy-25" value="- m_client:HTTPClient&amp;amp;" style="text;strokeColor=none;fillColor=none;align=left;verticalAlign=top;spacingLeft=4;spacingRight=4;overflow=hidden;rotatable=0;points=[[0,0.5],[1,0.5]];portConstraint=eastwest;whiteSpace=wrap;html=1;" vertex="1" parent="k_WOViQdDleKNS3Q56sM-28">
          <mxGeometry y="112" width="270" height="26" as="geometry" />
        </mxCell>
        <mxCell id="k_WOViQdDleKNS3Q56sM-31" value="" style="endArrow=diamondThin;endFill=0;endSize=24;html=1;rounded=0;" parent="1" source="k_WOViQdDleKNS3Q56sM-21" target="k_WOViQdDleKNS3Q56sM-28" edge="1">
          <mxGeometry width="160" relative="1" as="geometry">
            <mxPoint x="-690" y="1280" as="sourcePoint" />
            <mxPoint x="-530" y="1280" as="targetPoint" />
          </mxGeometry>
        </mxCell>
        <mxCell id="8moImD6-OMO9e3SYLIEy-1" value="Circle" style="swimlane;fontStyle=1;align=center;verticalAlign=top;childLayout=stackLayout;horizontal=1;startSize=26;horizontalStack=0;resizeParent=1;resizeParentMax=0;resizeLast=0;collapsible=1;marginBottom=0;whiteSpace=wrap;html=1;" vertex="1" parent="1">
          <mxGeometry x="-600" y="1480" width="210" height="164" as="geometry" />
        </mxCell>
        <mxCell id="8moImD6-OMO9e3SYLIEy-7" value="+ Circle(center:Point, radius: double)" style="text;strokeColor=none;fillColor=none;align=left;verticalAlign=top;spacingLeft=4;spacingRight=4;overflow=hidden;rotatable=0;points=[[0,0.5],[1,0.5]];portConstraint=eastwest;whiteSpace=wrap;html=1;" vertex="1" parent="8moImD6-OMO9e3SYLIEy-1">
          <mxGeometry y="26" width="210" height="26" as="geometry" />
        </mxCell>
        <mxCell id="8moImD6-OMO9e3SYLIEy-2" value="+ GetCenter(): Point" style="text;strokeColor=none;fillColor=none;align=left;verticalAlign=top;spacingLeft=4;spacingRight=4;overflow=hidden;rotatable=0;points=[[0,0.5],[1,0.5]];portConstraint=eastwest;whiteSpace=wrap;html=1;" vertex="1" parent="8moImD6-OMO9e3SYLIEy-1">
          <mxGeometry y="52" width="210" height="26" as="geometry" />
        </mxCell>
        <mxCell id="8moImD6-OMO9e3SYLIEy-6" value="+ GetRadius(): double" style="text;strokeColor=none;fillColor=none;align=left;verticalAlign=top;spacingLeft=4;spacingRight=4;overflow=hidden;rotatable=0;points=[[0,0.5],[1,0.5]];portConstraint=eastwest;whiteSpace=wrap;html=1;" vertex="1" parent="8moImD6-OMO9e3SYLIEy-1">
          <mxGeometry y="78" width="210" height="26" as="geometry" />
        </mxCell>
        <mxCell id="8moImD6-OMO9e3SYLIEy-3" value="" style="line;strokeWidth=1;fillColor=none;align=left;verticalAlign=middle;spacingTop=-1;spacingLeft=3;spacingRight=3;rotatable=0;labelPosition=right;points=[];portConstraint=eastwest;strokeColor=inherit;" vertex="1" parent="8moImD6-OMO9e3SYLIEy-1">
          <mxGeometry y="104" width="210" height="8" as="geometry" />
        </mxCell>
        <mxCell id="8moImD6-OMO9e3SYLIEy-4" value="- m_center: Point" style="text;strokeColor=none;fillColor=none;align=left;verticalAlign=top;spacingLeft=4;spacingRight=4;overflow=hidden;rotatable=0;points=[[0,0.5],[1,0.5]];portConstraint=eastwest;whiteSpace=wrap;html=1;" vertex="1" parent="8moImD6-OMO9e3SYLIEy-1">
          <mxGeometry y="112" width="210" height="26" as="geometry" />
        </mxCell>
        <mxCell id="8moImD6-OMO9e3SYLIEy-5" value="- m_radius: double" style="text;strokeColor=none;fillColor=none;align=left;verticalAlign=top;spacingLeft=4;spacingRight=4;overflow=hidden;rotatable=0;points=[[0,0.5],[1,0.5]];portConstraint=eastwest;whiteSpace=wrap;html=1;" vertex="1" parent="8moImD6-OMO9e3SYLIEy-1">
          <mxGeometry y="138" width="210" height="26" as="geometry" />
        </mxCell>
        <mxCell id="8moImD6-OMO9e3SYLIEy-8" value="Point" style="swimlane;fontStyle=1;align=center;verticalAlign=top;childLayout=stackLayout;horizontal=1;startSize=26;horizontalStack=0;resizeParent=1;resizeParentMax=0;resizeLast=0;collapsible=1;marginBottom=0;whiteSpace=wrap;html=1;" vertex="1" parent="1">
          <mxGeometry x="-272.5" y="1480" width="160" height="78" as="geometry" />
        </mxCell>
        <mxCell id="8moImD6-OMO9e3SYLIEy-9" value="+ x: double" style="text;strokeColor=none;fillColor=none;align=left;verticalAlign=top;spacingLeft=4;spacingRight=4;overflow=hidden;rotatable=0;points=[[0,0.5],[1,0.5]];portConstraint=eastwest;whiteSpace=wrap;html=1;" vertex="1" parent="8moImD6-OMO9e3SYLIEy-8">
          <mxGeometry y="26" width="160" height="26" as="geometry" />
        </mxCell>
        <mxCell id="8moImD6-OMO9e3SYLIEy-11" value="+ y: double" style="text;strokeColor=none;fillColor=none;align=left;verticalAlign=top;spacingLeft=4;spacingRight=4;overflow=hidden;rotatable=0;points=[[0,0.5],[1,0.5]];portConstraint=eastwest;whiteSpace=wrap;html=1;" vertex="1" parent="8moImD6-OMO9e3SYLIEy-8">
          <mxGeometry y="52" width="160" height="26" as="geometry" />
        </mxCell>
        <mxCell id="8moImD6-OMO9e3SYLIEy-12" value="" style="endArrow=diamondThin;endFill=1;endSize=24;html=1;rounded=0;" edge="1" parent="1" source="8moImD6-OMO9e3SYLIEy-8" target="8moImD6-OMO9e3SYLIEy-1">
          <mxGeometry width="160" relative="1" as="geometry">
            <mxPoint x="-320" y="1670" as="sourcePoint" />
            <mxPoint x="-160" y="1670" as="targetPoint" />
          </mxGeometry>
        </mxCell>
        <mxCell id="8moImD6-OMO9e3SYLIEy-13" value="Triangle" style="swimlane;fontStyle=1;align=center;verticalAlign=top;childLayout=stackLayout;horizontal=1;startSize=26;horizontalStack=0;resizeParent=1;resizeParentMax=0;resizeLast=0;collapsible=1;marginBottom=0;whiteSpace=wrap;html=1;" vertex="1" parent="1">
          <mxGeometry x="-305" y="1650" width="225" height="164" as="geometry" />
        </mxCell>
        <mxCell id="8moImD6-OMO9e3SYLIEy-14" value="+ Triangle(v1:Point, v2: Point, v3: Point)" style="text;strokeColor=none;fillColor=none;align=left;verticalAlign=top;spacingLeft=4;spacingRight=4;overflow=hidden;rotatable=0;points=[[0,0.5],[1,0.5]];portConstraint=eastwest;whiteSpace=wrap;html=1;" vertex="1" parent="8moImD6-OMO9e3SYLIEy-13">
          <mxGeometry y="26" width="225" height="26" as="geometry" />
        </mxCell>
        <mxCell id="8moImD6-OMO9e3SYLIEy-15" value="+ GetVertex1(): Point" style="text;strokeColor=none;fillColor=none;align=left;verticalAlign=top;spacingLeft=4;spacingRight=4;overflow=hidden;rotatable=0;points=[[0,0.5],[1,0.5]];portConstraint=eastwest;whiteSpace=wrap;html=1;" vertex="1" parent="8moImD6-OMO9e3SYLIEy-13">
          <mxGeometry y="52" width="225" height="26" as="geometry" />
        </mxCell>
        <mxCell id="8moImD6-OMO9e3SYLIEy-16" value="+ GetVertex2(): Point" style="text;strokeColor=none;fillColor=none;align=left;verticalAlign=top;spacingLeft=4;spacingRight=4;overflow=hidden;rotatable=0;points=[[0,0.5],[1,0.5]];portConstraint=eastwest;whiteSpace=wrap;html=1;" vertex="1" parent="8moImD6-OMO9e3SYLIEy-13">
          <mxGeometry y="78" width="225" height="26" as="geometry" />
        </mxCell>
        <mxCell id="8moImD6-OMO9e3SYLIEy-20" value="+ GetVertex3(): Point" style="text;strokeColor=none;fillColor=none;align=left;verticalAlign=top;spacingLeft=4;spacingRight=4;overflow=hidden;rotatable=0;points=[[0,0.5],[1,0.5]];portConstraint=eastwest;whiteSpace=wrap;html=1;" vertex="1" parent="8moImD6-OMO9e3SYLIEy-13">
          <mxGeometry y="104" width="225" height="26" as="geometry" />
        </mxCell>
        <mxCell id="8moImD6-OMO9e3SYLIEy-17" value="" style="line;strokeWidth=1;fillColor=none;align=left;verticalAlign=middle;spacingTop=-1;spacingLeft=3;spacingRight=3;rotatable=0;labelPosition=right;points=[];portConstraint=eastwest;strokeColor=inherit;" vertex="1" parent="8moImD6-OMO9e3SYLIEy-13">
          <mxGeometry y="130" width="225" height="8" as="geometry" />
        </mxCell>
        <mxCell id="8moImD6-OMO9e3SYLIEy-18" value="- m_vertices: Point[3]" style="text;strokeColor=none;fillColor=none;align=left;verticalAlign=top;spacingLeft=4;spacingRight=4;overflow=hidden;rotatable=0;points=[[0,0.5],[1,0.5]];portConstraint=eastwest;whiteSpace=wrap;html=1;" vertex="1" parent="8moImD6-OMO9e3SYLIEy-13">
          <mxGeometry y="138" width="225" height="26" as="geometry" />
        </mxCell>
        <mxCell id="8moImD6-OMO9e3SYLIEy-22" value="" style="endArrow=open;html=1;endSize=12;startArrow=diamondThin;startSize=14;startFill=1;edgeStyle=orthogonalEdgeStyle;align=left;verticalAlign=bottom;rounded=0;" edge="1" parent="1" source="8moImD6-OMO9e3SYLIEy-13" target="8moImD6-OMO9e3SYLIEy-8">
          <mxGeometry x="-0.7826" y="-10" relative="1" as="geometry">
            <mxPoint x="-110" y="1600" as="sourcePoint" />
            <mxPoint x="50" y="1600" as="targetPoint" />
            <mxPoint as="offset" />
          </mxGeometry>
        </mxCell>
        <mxCell id="8moImD6-OMO9e3SYLIEy-35" value="Point" style="swimlane;fontStyle=1;align=center;verticalAlign=top;childLayout=stackLayout;horizontal=1;startSize=26;horizontalStack=0;resizeParent=1;resizeParentMax=0;resizeLast=0;collapsible=1;marginBottom=0;whiteSpace=wrap;html=1;" vertex="1" parent="1">
          <mxGeometry x="370" y="1497" width="160" height="78" as="geometry" />
        </mxCell>
        <mxCell id="8moImD6-OMO9e3SYLIEy-36" value="+ x: double" style="text;strokeColor=none;fillColor=none;align=left;verticalAlign=top;spacingLeft=4;spacingRight=4;overflow=hidden;rotatable=0;points=[[0,0.5],[1,0.5]];portConstraint=eastwest;whiteSpace=wrap;html=1;" vertex="1" parent="8moImD6-OMO9e3SYLIEy-35">
          <mxGeometry y="26" width="160" height="26" as="geometry" />
        </mxCell>
        <mxCell id="8moImD6-OMO9e3SYLIEy-37" value="+ y: double" style="text;strokeColor=none;fillColor=none;align=left;verticalAlign=top;spacingLeft=4;spacingRight=4;overflow=hidden;rotatable=0;points=[[0,0.5],[1,0.5]];portConstraint=eastwest;whiteSpace=wrap;html=1;" vertex="1" parent="8moImD6-OMO9e3SYLIEy-35">
          <mxGeometry y="52" width="160" height="26" as="geometry" />
        </mxCell>
        <mxCell id="8moImD6-OMO9e3SYLIEy-38" value="Triangle" style="swimlane;fontStyle=1;align=center;verticalAlign=top;childLayout=stackLayout;horizontal=1;startSize=26;horizontalStack=0;resizeParent=1;resizeParentMax=0;resizeLast=0;collapsible=1;marginBottom=0;whiteSpace=wrap;html=1;" vertex="1" parent="1">
          <mxGeometry x="38.75" y="1480" width="225" height="112" as="geometry" />
        </mxCell>
        <mxCell id="8moImD6-OMO9e3SYLIEy-39" value="+ Triangle(v1:Point, v2: Point, v3: Point)" style="text;strokeColor=none;fillColor=none;align=left;verticalAlign=top;spacingLeft=4;spacingRight=4;overflow=hidden;rotatable=0;points=[[0,0.5],[1,0.5]];portConstraint=eastwest;whiteSpace=wrap;html=1;" vertex="1" parent="8moImD6-OMO9e3SYLIEy-38">
          <mxGeometry y="26" width="225" height="26" as="geometry" />
        </mxCell>
        <mxCell id="8moImD6-OMO9e3SYLIEy-40" value="..." style="text;strokeColor=none;fillColor=none;align=left;verticalAlign=top;spacingLeft=4;spacingRight=4;overflow=hidden;rotatable=0;points=[[0,0.5],[1,0.5]];portConstraint=eastwest;whiteSpace=wrap;html=1;" vertex="1" parent="8moImD6-OMO9e3SYLIEy-38">
          <mxGeometry y="52" width="225" height="26" as="geometry" />
        </mxCell>
        <mxCell id="8moImD6-OMO9e3SYLIEy-43" value="" style="line;strokeWidth=1;fillColor=none;align=left;verticalAlign=middle;spacingTop=-1;spacingLeft=3;spacingRight=3;rotatable=0;labelPosition=right;points=[];portConstraint=eastwest;strokeColor=inherit;" vertex="1" parent="8moImD6-OMO9e3SYLIEy-38">
          <mxGeometry y="78" width="225" height="8" as="geometry" />
        </mxCell>
        <mxCell id="8moImD6-OMO9e3SYLIEy-44" value="- m_vertices: Point[3]" style="text;strokeColor=none;fillColor=none;align=left;verticalAlign=top;spacingLeft=4;spacingRight=4;overflow=hidden;rotatable=0;points=[[0,0.5],[1,0.5]];portConstraint=eastwest;whiteSpace=wrap;html=1;" vertex="1" parent="8moImD6-OMO9e3SYLIEy-38">
          <mxGeometry y="86" width="225" height="26" as="geometry" />
        </mxCell>
        <mxCell id="8moImD6-OMO9e3SYLIEy-45" value="" style="endArrow=open;html=1;endSize=12;startArrow=diamondThin;startSize=14;startFill=1;edgeStyle=orthogonalEdgeStyle;align=left;verticalAlign=bottom;rounded=0;" edge="1" source="8moImD6-OMO9e3SYLIEy-38" target="8moImD6-OMO9e3SYLIEy-35" parent="1">
          <mxGeometry x="-0.7826" y="-10" relative="1" as="geometry">
            <mxPoint x="446.25" y="1620" as="sourcePoint" />
            <mxPoint x="606.25" y="1620" as="targetPoint" />
            <mxPoint as="offset" />
          </mxGeometry>
        </mxCell>
        <mxCell id="8moImD6-OMO9e3SYLIEy-46" value="Person" style="swimlane;fontStyle=1;align=center;verticalAlign=top;childLayout=stackLayout;horizontal=1;startSize=26;horizontalStack=0;resizeParent=1;resizeParentMax=0;resizeLast=0;collapsible=1;marginBottom=0;whiteSpace=wrap;html=1;" vertex="1" parent="1">
          <mxGeometry x="200" y="1040" width="180" height="52" as="geometry" />
        </mxCell>
        <mxCell id="8moImD6-OMO9e3SYLIEy-57" value="-m_subscriptions: [Magazine*]" style="text;strokeColor=none;fillColor=none;align=left;verticalAlign=top;spacingLeft=4;spacingRight=4;overflow=hidden;rotatable=0;points=[[0,0.5],[1,0.5]];portConstraint=eastwest;whiteSpace=wrap;html=1;" vertex="1" parent="8moImD6-OMO9e3SYLIEy-46">
          <mxGeometry y="26" width="180" height="26" as="geometry" />
        </mxCell>
        <mxCell id="8moImD6-OMO9e3SYLIEy-50" value="Magazine" style="swimlane;fontStyle=1;align=center;verticalAlign=top;childLayout=stackLayout;horizontal=1;startSize=26;horizontalStack=0;resizeParent=1;resizeParentMax=0;resizeLast=0;collapsible=1;marginBottom=0;whiteSpace=wrap;html=1;" vertex="1" parent="1">
          <mxGeometry x="550" y="1040" width="160" height="52" as="geometry" />
        </mxCell>
        <mxCell id="8moImD6-OMO9e3SYLIEy-58" value="-m_subscribers: [Person*]" style="text;strokeColor=none;fillColor=none;align=left;verticalAlign=top;spacingLeft=4;spacingRight=4;overflow=hidden;rotatable=0;points=[[0,0.5],[1,0.5]];portConstraint=eastwest;whiteSpace=wrap;html=1;" vertex="1" parent="8moImD6-OMO9e3SYLIEy-50">
          <mxGeometry y="26" width="160" height="26" as="geometry" />
        </mxCell>
        <mxCell id="8moImD6-OMO9e3SYLIEy-54" value="" style="endArrow=none;html=1;edgeStyle=orthogonalEdgeStyle;rounded=0;" edge="1" parent="1" source="8moImD6-OMO9e3SYLIEy-46" target="8moImD6-OMO9e3SYLIEy-50">
          <mxGeometry relative="1" as="geometry">
            <mxPoint x="420" y="1160" as="sourcePoint" />
            <mxPoint x="580" y="1160" as="targetPoint" />
          </mxGeometry>
        </mxCell>
        <mxCell id="8moImD6-OMO9e3SYLIEy-55" value="subscriber" style="edgeLabel;resizable=0;html=1;align=left;verticalAlign=bottom;" connectable="0" vertex="1" parent="8moImD6-OMO9e3SYLIEy-54">
          <mxGeometry x="-1" relative="1" as="geometry" />
        </mxCell>
        <mxCell id="8moImD6-OMO9e3SYLIEy-56" value="subscribed magazine" style="edgeLabel;resizable=0;html=1;align=right;verticalAlign=bottom;" connectable="0" vertex="1" parent="8moImD6-OMO9e3SYLIEy-54">
          <mxGeometry x="1" relative="1" as="geometry" />
        </mxCell>
        <mxCell id="8moImD6-OMO9e3SYLIEy-59" value="Student" style="swimlane;fontStyle=1;align=center;verticalAlign=top;childLayout=stackLayout;horizontal=1;startSize=26;horizontalStack=0;resizeParent=1;resizeParentMax=0;resizeLast=0;collapsible=1;marginBottom=0;whiteSpace=wrap;html=1;" vertex="1" parent="1">
          <mxGeometry x="200" y="1160" width="180" height="52" as="geometry" />
        </mxCell>
        <mxCell id="8moImD6-OMO9e3SYLIEy-60" value="-m_courses: [Course*]" style="text;strokeColor=none;fillColor=none;align=left;verticalAlign=top;spacingLeft=4;spacingRight=4;overflow=hidden;rotatable=0;points=[[0,0.5],[1,0.5]];portConstraint=eastwest;whiteSpace=wrap;html=1;" vertex="1" parent="8moImD6-OMO9e3SYLIEy-59">
          <mxGeometry y="26" width="180" height="26" as="geometry" />
        </mxCell>
        <mxCell id="8moImD6-OMO9e3SYLIEy-61" value="Course" style="swimlane;fontStyle=1;align=center;verticalAlign=top;childLayout=stackLayout;horizontal=1;startSize=26;horizontalStack=0;resizeParent=1;resizeParentMax=0;resizeLast=0;collapsible=1;marginBottom=0;whiteSpace=wrap;html=1;" vertex="1" parent="1">
          <mxGeometry x="520" y="1160" width="180" height="52" as="geometry" />
        </mxCell>
        <mxCell id="8moImD6-OMO9e3SYLIEy-63" value="" style="endArrow=open;html=1;edgeStyle=orthogonalEdgeStyle;rounded=0;endFill=0;" edge="1" parent="1" source="8moImD6-OMO9e3SYLIEy-59" target="8moImD6-OMO9e3SYLIEy-61">
          <mxGeometry relative="1" as="geometry">
            <mxPoint x="420" y="1230" as="sourcePoint" />
            <mxPoint x="580" y="1230" as="targetPoint" />
          </mxGeometry>
        </mxCell>
        <mxCell id="8moImD6-OMO9e3SYLIEy-65" value="attended courses" style="edgeLabel;resizable=0;html=1;align=right;verticalAlign=bottom;" connectable="0" vertex="1" parent="8moImD6-OMO9e3SYLIEy-63">
          <mxGeometry x="1" relative="1" as="geometry">
            <mxPoint x="-20" as="offset" />
          </mxGeometry>
        </mxCell>
        <mxCell id="8moImD6-OMO9e3SYLIEy-71" value="Library" style="swimlane;fontStyle=1;align=center;verticalAlign=top;childLayout=stackLayout;horizontal=1;startSize=26;horizontalStack=0;resizeParent=1;resizeParentMax=0;resizeLast=0;collapsible=1;marginBottom=0;whiteSpace=wrap;html=1;" vertex="1" parent="1">
          <mxGeometry x="254" y="1880" width="160" height="52" as="geometry" />
        </mxCell>
        <mxCell id="8moImD6-OMO9e3SYLIEy-75" value="Book" style="swimlane;fontStyle=1;align=center;verticalAlign=top;childLayout=stackLayout;horizontal=1;startSize=26;horizontalStack=0;resizeParent=1;resizeParentMax=0;resizeLast=0;collapsible=1;marginBottom=0;whiteSpace=wrap;html=1;" vertex="1" parent="1">
          <mxGeometry x="480" y="1880" width="160" height="52" as="geometry" />
        </mxCell>
        <mxCell id="8moImD6-OMO9e3SYLIEy-76" value="BookCatalogue" style="swimlane;fontStyle=1;align=center;verticalAlign=top;childLayout=stackLayout;horizontal=1;startSize=26;horizontalStack=0;resizeParent=1;resizeParentMax=0;resizeLast=0;collapsible=1;marginBottom=0;whiteSpace=wrap;html=1;" vertex="1" parent="1">
          <mxGeometry x="480" y="2000" width="160" height="52" as="geometry" />
        </mxCell>
        <mxCell id="8moImD6-OMO9e3SYLIEy-77" value="" style="endArrow=diamondThin;endFill=1;endSize=24;html=1;rounded=0;" edge="1" parent="1" source="8moImD6-OMO9e3SYLIEy-75" target="8moImD6-OMO9e3SYLIEy-71">
          <mxGeometry width="160" relative="1" as="geometry">
            <mxPoint x="230" y="2000" as="sourcePoint" />
            <mxPoint x="390" y="2000" as="targetPoint" />
          </mxGeometry>
        </mxCell>
        <mxCell id="8moImD6-OMO9e3SYLIEy-78" value="" style="endArrow=diamondThin;endFill=0;endSize=24;html=1;rounded=0;" edge="1" parent="1" source="8moImD6-OMO9e3SYLIEy-75" target="8moImD6-OMO9e3SYLIEy-76">
          <mxGeometry width="160" relative="1" as="geometry">
            <mxPoint x="470" y="1960" as="sourcePoint" />
            <mxPoint x="630" y="1960" as="targetPoint" />
          </mxGeometry>
        </mxCell>
        <mxCell id="8moImD6-OMO9e3SYLIEy-79" value="Clock" style="swimlane;fontStyle=1;align=center;verticalAlign=top;childLayout=stackLayout;horizontal=1;startSize=26;horizontalStack=0;resizeParent=1;resizeParentMax=0;resizeLast=0;collapsible=1;marginBottom=0;whiteSpace=wrap;html=1;" vertex="1" parent="1">
          <mxGeometry x="-400" y="1960" width="160" height="52" as="geometry" />
        </mxCell>
        <mxCell id="8moImD6-OMO9e3SYLIEy-80" value="-m_currentTime:TimePoint" style="text;strokeColor=none;fillColor=none;align=left;verticalAlign=top;spacingLeft=4;spacingRight=4;overflow=hidden;rotatable=0;points=[[0,0.5],[1,0.5]];portConstraint=eastwest;whiteSpace=wrap;html=1;" vertex="1" parent="8moImD6-OMO9e3SYLIEy-79">
          <mxGeometry y="26" width="160" height="26" as="geometry" />
        </mxCell>
        <mxCell id="8moImD6-OMO9e3SYLIEy-83" value="AlarmClock" style="swimlane;fontStyle=1;align=center;verticalAlign=top;childLayout=stackLayout;horizontal=1;startSize=26;horizontalStack=0;resizeParent=1;resizeParentMax=0;resizeLast=0;collapsible=1;marginBottom=0;whiteSpace=wrap;html=1;" vertex="1" parent="1">
          <mxGeometry x="-400" y="2120" width="160" height="112" as="geometry" />
        </mxCell>
        <mxCell id="8moImD6-OMO9e3SYLIEy-98" value="" style="line;strokeWidth=1;fillColor=none;align=left;verticalAlign=middle;spacingTop=-1;spacingLeft=3;spacingRight=3;rotatable=0;labelPosition=right;points=[];portConstraint=eastwest;strokeColor=inherit;" vertex="1" parent="8moImD6-OMO9e3SYLIEy-83">
          <mxGeometry y="26" width="160" height="8" as="geometry" />
        </mxCell>
        <mxCell id="8moImD6-OMO9e3SYLIEy-84" value="- m_clock: Clock" style="text;strokeColor=none;fillColor=none;align=left;verticalAlign=top;spacingLeft=4;spacingRight=4;overflow=hidden;rotatable=0;points=[[0,0.5],[1,0.5]];portConstraint=eastwest;whiteSpace=wrap;html=1;" vertex="1" parent="8moImD6-OMO9e3SYLIEy-83">
          <mxGeometry y="34" width="160" height="26" as="geometry" />
        </mxCell>
        <mxCell id="8moImD6-OMO9e3SYLIEy-95" value="-m_alarmTime:TimePoint" style="text;strokeColor=none;fillColor=none;align=left;verticalAlign=top;spacingLeft=4;spacingRight=4;overflow=hidden;rotatable=0;points=[[0,0.5],[1,0.5]];portConstraint=eastwest;whiteSpace=wrap;html=1;" vertex="1" parent="8moImD6-OMO9e3SYLIEy-83">
          <mxGeometry y="60" width="160" height="26" as="geometry" />
        </mxCell>
        <mxCell id="8moImD6-OMO9e3SYLIEy-89" value="- m_beeper: Beeper" style="text;strokeColor=none;fillColor=none;align=left;verticalAlign=top;spacingLeft=4;spacingRight=4;overflow=hidden;rotatable=0;points=[[0,0.5],[1,0.5]];portConstraint=eastwest;whiteSpace=wrap;html=1;" vertex="1" parent="8moImD6-OMO9e3SYLIEy-83">
          <mxGeometry y="86" width="160" height="26" as="geometry" />
        </mxCell>
        <mxCell id="8moImD6-OMO9e3SYLIEy-85" value="" style="endArrow=diamondThin;endFill=1;endSize=24;html=1;rounded=0;" edge="1" parent="1" source="8moImD6-OMO9e3SYLIEy-79" target="8moImD6-OMO9e3SYLIEy-83">
          <mxGeometry width="160" relative="1" as="geometry">
            <mxPoint x="-380" y="2070" as="sourcePoint" />
            <mxPoint x="-220" y="2070" as="targetPoint" />
          </mxGeometry>
        </mxCell>
        <mxCell id="8moImD6-OMO9e3SYLIEy-86" value="Beeper" style="swimlane;fontStyle=1;align=center;verticalAlign=top;childLayout=stackLayout;horizontal=1;startSize=26;horizontalStack=0;resizeParent=1;resizeParentMax=0;resizeLast=0;collapsible=1;marginBottom=0;whiteSpace=wrap;html=1;" vertex="1" parent="1">
          <mxGeometry x="-100" y="2100" width="160" height="52" as="geometry" />
        </mxCell>
        <mxCell id="8moImD6-OMO9e3SYLIEy-87" value="+Beep()" style="text;strokeColor=none;fillColor=none;align=left;verticalAlign=top;spacingLeft=4;spacingRight=4;overflow=hidden;rotatable=0;points=[[0,0.5],[1,0.5]];portConstraint=eastwest;whiteSpace=wrap;html=1;" vertex="1" parent="8moImD6-OMO9e3SYLIEy-86">
          <mxGeometry y="26" width="160" height="26" as="geometry" />
        </mxCell>
        <mxCell id="8moImD6-OMO9e3SYLIEy-88" value="" style="endArrow=diamondThin;endFill=1;endSize=24;html=1;rounded=0;edgeStyle=orthogonalEdgeStyle;" edge="1" parent="1" source="8moImD6-OMO9e3SYLIEy-86" target="8moImD6-OMO9e3SYLIEy-83">
          <mxGeometry width="160" relative="1" as="geometry">
            <mxPoint x="-310" y="2022" as="sourcePoint" />
            <mxPoint x="-310" y="2130" as="targetPoint" />
          </mxGeometry>
        </mxCell>
        <mxCell id="8moImD6-OMO9e3SYLIEy-90" value="TimePoint" style="swimlane;fontStyle=1;align=center;verticalAlign=top;childLayout=stackLayout;horizontal=1;startSize=26;horizontalStack=0;resizeParent=1;resizeParentMax=0;resizeLast=0;collapsible=1;marginBottom=0;whiteSpace=wrap;html=1;" vertex="1" parent="1">
          <mxGeometry x="-160" y="1960" width="160" height="52" as="geometry" />
        </mxCell>
        <mxCell id="8moImD6-OMO9e3SYLIEy-91" value="..." style="text;strokeColor=none;fillColor=none;align=left;verticalAlign=top;spacingLeft=4;spacingRight=4;overflow=hidden;rotatable=0;points=[[0,0.5],[1,0.5]];portConstraint=eastwest;whiteSpace=wrap;html=1;" vertex="1" parent="8moImD6-OMO9e3SYLIEy-90">
          <mxGeometry y="26" width="160" height="26" as="geometry" />
        </mxCell>
        <mxCell id="8moImD6-OMO9e3SYLIEy-92" value="" style="endArrow=diamondThin;endFill=1;endSize=24;html=1;rounded=0;" edge="1" parent="1" source="8moImD6-OMO9e3SYLIEy-90" target="8moImD6-OMO9e3SYLIEy-79">
          <mxGeometry width="160" relative="1" as="geometry">
            <mxPoint x="-210" y="2070" as="sourcePoint" />
            <mxPoint x="-50" y="2070" as="targetPoint" />
          </mxGeometry>
        </mxCell>
        <mxCell id="8moImD6-OMO9e3SYLIEy-96" value="" style="endArrow=diamondThin;endFill=1;endSize=24;html=1;rounded=0;" edge="1" parent="1" source="8moImD6-OMO9e3SYLIEy-90" target="8moImD6-OMO9e3SYLIEy-83">
          <mxGeometry width="160" relative="1" as="geometry">
            <mxPoint x="-300" y="2080" as="sourcePoint" />
            <mxPoint x="-140" y="2080" as="targetPoint" />
          </mxGeometry>
        </mxCell>
      </root>
    </mxGraphModel>
  </diagram>
</mxfile>
